999
dxfrw 0.5.11
0
SECTION
2
HEADER
9
$ACADVER
1
AC1021
9
$HANDSEED
5
20000
9
$DWGCODEPAGE
3
ANSI_1252
9
$INSBASE
10
0
20
0
30
0
9
$EXTMIN
10
1.5
20
1.86678890951
30
0
9
$EXTMAX
10
94.1332110905
20
74.5
30
0
9
$LIMMIN
10
0
20
0
9
$LIMMAX
10
420
20
297
9
$ORTHOMODE
70
0
9
$LTSCALE
40
1
9
$TEXTSTYLE
7
STANDARD
9
$CLAYER
8
plywood
9
$DIMASZ
40
0.8
9
$DIMLFAC
40
1
9
$DIMSCALE
40
1
9
$DIMEXO
40
0.8
9
$DIMEXE
40
0.00410105
9
$DIMTXT
40
2
9
$DIMTSZ
40
0
9
$DIMAUNIT
70
0
9
$DIMADEC
70
2
9
$DIMLUNIT
70
5
9
$DIMSTYLE
2
STANDARD
9
$DIMGAP
40
0.5
9
$DIMTIH
70
0
9
$LUNITS
70
5
9
$LUPREC
70
4
9
$AUNITS
70
0
9
$AUPREC
70
2
9
$SPLINESEGS
70
8
9
$GRIDMODE
70
1
9
$SNAPSTYLE
70
0
9
$GRIDUNIT
10
0
20
0
9
$PINSBASE
10
0.0460132738596
20
0.0249132766992
30
0
9
$PLIMMIN
10
0
20
0
9
$PLIMMAX
10
0.916666666667
20
0.708333333333
9
$INSUNITS
70
2
9
$PSVPSCALE
40
0.00862291972062
0
ENDSEC
0
SECTION
2
CLASSES
0
ENDSEC
0
SECTION
2
TABLES
0
TABLE
2
VPORT
5
8
330
0
100
AcDbSymbolTable
70
1
0
VPORT
5
31
330
2
100
AcDbSymbolTableRecord
100
AcDbViewportTableRecord
2
*ACTIVE
70
0
10
0
20
0
11
1
21
1
12
62.0179237422
22
34.9031105712
13
0
23
0
14
10
24
10
15
10
25
10
16
0
26
0
36
1
17
0
27
0
37
0
40
69.5177656831
41
2.28008298755
42
50
43
0
44
0
50
0
51
0
71
0
72
100
73
1
74
3
75
0
76
1
77
0
78
0
281
0
65
1
110
0
120
0
130
0
111
1
121
0
131
0
112
0
122
1
132
0
79
0
146
0
348
10020
60
7
61
5
292
1
282
1
141
0
142
0
63
250
421
3358443
0
ENDTAB
0
TABLE
2
LTYPE
5
5
330
0
100
AcDbSymbolTable
70
4
0
LTYPE
5
14
330
5
100
AcDbSymbolTableRecord
100
AcDbLinetypeTableRecord
2
ByBlock
70
0
3

72
65
73
0
40
0
0
LTYPE
5
15
330
5
100
AcDbSymbolTableRecord
100
AcDbLinetypeTableRecord
2
ByLayer
70
0
3

72
65
73
0
40
0
0
LTYPE
5
16
330
5
100
AcDbSymbolTableRecord
100
AcDbLinetypeTableRecord
2
Continuous
70
0
3
Solid line
72
65
73
0
40
0
0
LTYPE
5
32
330
5
100
AcDbSymbolTableRecord
100
AcDbLinetypeTableRecord
2
DOT
70
0
3
Dot . . . . . . . . . . . . . . . . . . . . . .
72
65
73
2
40
6.35
49
0
74
0
49
-6.35
74
0
0
LTYPE
5
33
330
5
100
AcDbSymbolTableRecord
100
AcDbLinetypeTableRecord
2
DOT2
70
0
3
Dot (.5x) .....................................
72
65
73
2
40
3.175
49
0
74
0
49
-3.175
74
0
0
LTYPE
5
34
330
5
100
AcDbSymbolTableRecord
100
AcDbLinetypeTableRecord
2
DOTX2
70
0
3
Dot (2x) .  .  .  .  .  .  .  .  .  .  .  .  .
72
65
73
2
40
12.7
49
0
74
0
49
-12.7
74
0
0
LTYPE
5
35
330
5
100
AcDbSymbolTableRecord
100
AcDbLinetypeTableRecord
2
DASHED
70
0
3
Dot . . . . . . . . . . . . . . . . . . . . . .
72
65
73
2
40
19.05
49
12.7
74
0
49
-6.35
74
0
0
LTYPE
5
36
330
5
100
AcDbSymbolTableRecord
100
AcDbLinetypeTableRecord
2
DASHED2
70
0
3
Dashed (.5x) _ _ _ _ _ _ _ _ _ _ _ _ _ _ _ _ _
72
65
73
2
40
9.525
49
6.35
74
0
49
-3.175
74
0
0
LTYPE
5
37
330
5
100
AcDbSymbolTableRecord
100
AcDbLinetypeTableRecord
2
DASHEDX2
70
0
3
Dashed (2x) ____  ____  ____  ____  ____  ___
72
65
73
2
40
38.1
49
25.4
74
0
49
-12.7
74
0
0
LTYPE
5
38
330
5
100
AcDbSymbolTableRecord
100
AcDbLinetypeTableRecord
2
DASHDOT
70
0
3
Dash dot __ . __ . __ . __ . __ . __ . __ . __
72
65
73
4
40
25.4
49
12.7
74
0
49
-6.35
74
0
49
0
74
0
49
-6.35
74
0
0
LTYPE
5
39
330
5
100
AcDbSymbolTableRecord
100
AcDbLinetypeTableRecord
2
DASHDOT2
70
0
3
Dash dot (.5x) _._._._._._._._._._._._._._._.
72
65
73
4
40
12.7
49
6.35
74
0
49
-3.175
74
0
49
0
74
0
49
-3.175
74
0
0
LTYPE
5
3A
330
5
100
AcDbSymbolTableRecord
100
AcDbLinetypeTableRecord
2
DASHDOTX2
70
0
3
Dash dot (2x) ____  .  ____  .  ____  .  ___
72
65
73
4
40
50.8
49
25.4
74
0
49
-12.7
74
0
49
0
74
0
49
-12.7
74
0
0
LTYPE
5
3B
330
5
100
AcDbSymbolTableRecord
100
AcDbLinetypeTableRecord
2
DIVIDE
70
0
3
Divide ____ . . ____ . . ____ . . ____ . . ____
72
65
73
6
40
31.75
49
12.7
74
0
49
-6.35
74
0
49
0
74
0
49
-6.35
74
0
49
0
74
0
49
-6.35
74
0
0
LTYPE
5
3C
330
5
100
AcDbSymbolTableRecord
100
AcDbLinetypeTableRecord
2
DIVIDE2
70
0
3
Divide (.5x) __..__..__..__..__..__..__..__.._
72
65
73
6
40
15.875
49
6.35
74
0
49
-3.175
74
0
49
0
74
0
49
-3.175
74
0
49
0
74
0
49
-3.175
74
0
0
LTYPE
5
3D
330
5
100
AcDbSymbolTableRecord
100
AcDbLinetypeTableRecord
2
DIVIDEX2
70
0
3
Divide (2x) ________  .  .  ________  .  .  _
72
65
73
6
40
63.5
49
25.4
74
0
49
-12.7
74
0
49
0
74
0
49
-12.7
74
0
49
0
74
0
49
-12.7
74
0
0
LTYPE
5
3E
330
5
100
AcDbSymbolTableRecord
100
AcDbLinetypeTableRecord
2
BORDER
70
0
3
Border __ __ . __ __ . __ __ . __ __ . __ __ .
72
65
73
6
40
44.45
49
12.7
74
0
49
-6.35
74
0
49
12.7
74
0
49
-6.35
74
0
49
0
74
0
49
-6.35
74
0
0
LTYPE
5
3F
330
5
100
AcDbSymbolTableRecord
100
AcDbLinetypeTableRecord
2
BORDER2
70
0
3
Border (.5x) __.__.__.__.__.__.__.__.__.__.__.
72
65
73
6
40
22.225
49
6.35
74
0
49
-3.175
74
0
49
6.35
74
0
49
-3.175
74
0
49
0
74
0
49
-3.175
74
0
0
LTYPE
5
40
330
5
100
AcDbSymbolTableRecord
100
AcDbLinetypeTableRecord
2
BORDERX2
70
0
3
Border (2x) ____  ____  .  ____  ____  .  ___
72
65
73
6
40
88.9
49
25.4
74
0
49
-12.7
74
0
49
25.4
74
0
49
-12.7
74
0
49
0
74
0
49
-12.7
74
0
0
LTYPE
5
41
330
5
100
AcDbSymbolTableRecord
100
AcDbLinetypeTableRecord
2
CENTER
70
0
3
Center ____ _ ____ _ ____ _ ____ _ ____ _ ____
72
65
73
4
40
50.8
49
31.75
74
0
49
-6.35
74
0
49
6.35
74
0
49
-6.35
74
0
0
LTYPE
5
42
330
5
100
AcDbSymbolTableRecord
100
AcDbLinetypeTableRecord
2
CENTER2
70
0
3
Center (.5x) ___ _ ___ _ ___ _ ___ _ ___ _ ___
72
65
73
4
40
28.575
49
19.05
74
0
49
-3.175
74
0
49
3.175
74
0
49
-3.175
74
0
0
LTYPE
5
43
330
5
100
AcDbSymbolTableRecord
100
AcDbLinetypeTableRecord
2
CENTERX2
70
0
3
Center (2x) ________  __  ________  __  _____
72
65
73
4
40
101.6
49
63.5
74
0
49
-12.7
74
0
49
12.7
74
0
49
-12.7
74
0
0
ENDTAB
0
TABLE
2
LAYER
5
2
330
0
100
AcDbSymbolTable
70
1
0
LAYER
5
10
330
2
100
AcDbSymbolTableRecord
100
AcDbLayerTableRecord
2
0
70
0
62
3
6
CONTINUOUS
370
0
390
F
0
LAYER
5
44
330
2
100
AcDbSymbolTableRecord
100
AcDbLayerTableRecord
2
frame
70
0
62
7
6
CONTINUOUS
370
0
390
F
0
LAYER
5
45
330
2
100
AcDbSymbolTableRecord
100
AcDbLayerTableRecord
2
plywood
70
0
62
16
420
8388608
6
CONTINUOUS
370
0
390
F
0
LAYER
5
46
330
2
100
AcDbSymbolTableRecord
100
AcDbLayerTableRecord
2
rabbet
70
0
62
5
6
DASHED2
370
0
390
F
0
ENDTAB
0
TABLE
2
STYLE
5
3
330
0
100
AcDbSymbolTable
70
3
0
STYLE
5
47
330
2
100
AcDbSymbolTableRecord
100
AcDbTextStyleTableRecord
2
Standard
70
0
40
0
41
1
50
0
71
0
42
1
3
txt
4

0
ENDTAB
0
TABLE
2
VIEW
5
6
330
0
100
AcDbSymbolTable
70
0
0
ENDTAB
0
TABLE
2
UCS
5
7
330
0
100
AcDbSymbolTable
70
0
0
ENDTAB
0
TABLE
2
APPID
5
9
330
0
100
AcDbSymbolTable
70
1
0
APPID
5
12
330
9
100
AcDbSymbolTableRecord
100
AcDbRegAppTableRecord
2
ACAD
70
0
0
ENDTAB
0
TABLE
2
DIMSTYLE
5
A
330
0
100
AcDbSymbolTable
70
1
100
AcDbDimStyleTable
71
1
0
DIMSTYLE
105
48
330
A
100
AcDbSymbolTableRecord
100
AcDbDimStyleTableRecord
2
Standard
70
0
40
1
41
0.8
42
0.8
43
0.38
44
0.00410105
45
0
46
0
47
0
48
0
140
2
141
0.09
142
0
143
25.4
144
1
145
0
146
1
147
0.5
148
0
71
0
72
0
73
0
74
1
75
0
76
0
77
0
78
0
79
0
170
0
171
2
172
0
173
0
174
0
175
0
176
0
177
0
178
0
179
0
271
4
272
4
273
2
274
2
275
0
276
0
277
2
278
46
279
0
280
0
281
0
282
0
283
1
284
0
285
0
286
0
288
0
289
3
340
Standard
341

371
-2
372
-2
0
ENDTAB
0
TABLE
2
BLOCK_RECORD
5
1
330
0
100
AcDbSymbolTable
70
2
0
BLOCK_RECORD
5
1F
330
1
100
AcDbSymbolTableRecord
100
AcDbBlockTableRecord
2
*Model_Space
70
0
280
1
281
0
0
BLOCK_RECORD
5
1E
330
1
100
AcDbSymbolTableRecord
100
AcDbBlockTableRecord
2
*Paper_Space
70
0
280
1
281
0
0
BLOCK_RECORD
5
49
330
1
100
AcDbSymbolTableRecord
100
AcDbBlockTableRecord
2
*D3
70
0
280
1
281
0
0
BLOCK_RECORD
5
4C
330
1
100
AcDbSymbolTableRecord
100
AcDbBlockTableRecord
2
*D6
70
0
280
1
281
0
0
BLOCK_RECORD
5
4F
330
1
100
AcDbSymbolTableRecord
100
AcDbBlockTableRecord
2
*D1
70
0
280
1
281
0
0
BLOCK_RECORD
5
52
330
1
100
AcDbSymbolTableRecord
100
AcDbBlockTableRecord
2
*D5
70
0
280
1
281
0
0
BLOCK_RECORD
5
55
330
1
100
AcDbSymbolTableRecord
100
AcDbBlockTableRecord
2
*D4
70
0
280
1
281
0
0
BLOCK_RECORD
5
58
330
1
100
AcDbSymbolTableRecord
100
AcDbBlockTableRecord
2
*D2
70
0
280
1
281
0
0
BLOCK_RECORD
5
5B
330
1
100
AcDbSymbolTableRecord
100
AcDbBlockTableRecord
2
*D7
70
0
280
1
281
0
0
BLOCK_RECORD
5
5E
330
1
100
AcDbSymbolTableRecord
100
AcDbBlockTableRecord
2
*D8
70
0
280
1
281
0
0
BLOCK_RECORD
5
61
330
1
100
AcDbSymbolTableRecord
100
AcDbBlockTableRecord
2
*D9
70
0
280
1
281
0
0
ENDTAB
0
ENDSEC
0
SECTION
2
BLOCKS
0
BLOCK
5
20
330
1F
100
AcDbEntity
8
0
100
AcDbBlockBegin
2
*Model_Space
70
0
10
0
20
0
30
0
3
*Model_Space
1

0
ENDBLK
5
21
330
1F
100
AcDbEntity
8
0
100
AcDbBlockEnd
0
BLOCK
5
1C
330
1B
100
AcDbEntity
8
0
100
AcDbBlockBegin
2
*Paper_Space
70
0
10
0
20
0
30
0
3
*Paper_Space
1

0
ENDBLK
5
1D
330
1F
100
AcDbEntity
8
0
100
AcDbBlockEnd
0
BLOCK
5
4A
330
49
100
AcDbEntity
8
0
100
AcDbBlockBegin
2
*D3
70
1
10
0
20
0
3
*D3
1

0
LINE
5
64
100
AcDbEntity
8
frame
6
CONTINUOUS
62
7
370
0
100
AcDbLine
10
94
20
69.5
11
94
21
6.5
0
SOLID
5
65
100
AcDbEntity
8
frame
6
CONTINUOUS
62
7
370
0
100
AcDbTrace
10
94
20
69.5
30
0
11
94.1332110905
21
68.7
31
0
12
93.8667889095
22
68.7
32
0
13
93.8667889095
23
68.7
33
0
0
SOLID
5
66
100
AcDbEntity
8
frame
6
CONTINUOUS
62
7
370
0
100
AcDbTrace
10
94
20
6.5
30
0
11
93.8667889095
21
7.3
31
0
12
94.1332110905
22
7.3
32
0
13
94.1332110905
23
7.3
33
0
0
MTEXT
5
67
100
AcDbEntity
8
frame
6
CONTINUOUS
62
7
370
0
100
AcDbMText
10
92.5
20
38
30
0
40
2
41
2.44444444444
71
5
72
1
1
63
7
standard
210
0
220
0
230
1
50
90
73
2
44
1
0
LINE
5
68
100
AcDbEntity
8
frame
6
CONTINUOUS
62
7
370
0
100
AcDbLine
10
90.3
20
69.5
11
94.00410105
21
69.5
0
LINE
5
69
100
AcDbEntity
8
frame
6
CONTINUOUS
62
7
370
0
100
AcDbLine
10
90.3
20
6.5
11
94.00410105
21
6.5
0
ENDBLK
5
4B
330
49
100
AcDbEntity
8
0
100
AcDbBlockEnd
0
BLOCK
5
4D
330
4C
100
AcDbEntity
8
0
100
AcDbBlockBegin
2
*D6
70
1
10
0
20
0
3
*D6
1

0
LINE
5
6A
100
AcDbEntity
8
rabbet
6
CONTINUOUS
62
7
370
0
100
AcDbLine
10
33.3139948396
20
9.6
11
33.3139948396
21
5.9
0
SOLID
5
6B
100
AcDbEntity
8
rabbet
6
CONTINUOUS
62
7
370
0
100
AcDbTrace
10
33.3139948396
20
8
30
0
11
33.1807837491
21
8.8
31
0
12
33.4472059301
22
8.8
32
0
13
33.4472059301
23
8.8
33
0
0
SOLID
5
6C
100
AcDbEntity
8
rabbet
6
CONTINUOUS
62
7
370
0
100
AcDbTrace
10
33.3139948396
20
7.5
30
0
11
33.4472059301
21
6.7
31
0
12
33.1807837491
22
6.7
32
0
13
33.1807837491
23
6.7
33
0
0
MTEXT
5
6D
100
AcDbEntity
8
rabbet
6
CONTINUOUS
62
7
370
0
100
AcDbMText
10
31.8139948396
20
10.2777777778
30
0
40
2
41
3.55555555556
71
5
72
1
1
1/2
7
standard
210
0
220
0
230
1
50
90
73
2
44
1
0
LINE
5
6E
100
AcDbEntity
8
rabbet
6
CONTINUOUS
62
7
370
0
100
AcDbLine
10
32.5139948396
20
8
11
33.3098937896
21
8
0
LINE
5
6F
100
AcDbEntity
8
rabbet
6
CONTINUOUS
62
7
370
0
100
AcDbLine
10
32.5139948396
20
7.5
11
33.3098937896
21
7.5
0
ENDBLK
5
4E
330
4C
100
AcDbEntity
8
0
100
AcDbBlockEnd
0
BLOCK
5
50
330
4F
100
AcDbEntity
8
0
100
AcDbBlockBegin
2
*D1
70
1
10
0
20
0
3
*D1
1

0
LINE
5
70
100
AcDbEntity
8
frame
6
CONTINUOUS
62
7
370
0
100
AcDbLine
10
8
20
64
11
88
21
64
0
SOLID
5
71
100
AcDbEntity
8
frame
6
CONTINUOUS
62
7
370
0
100
AcDbTrace
10
8
20
64
30
0
11
8.8
21
64.1332110905
31
0
12
8.8
22
63.8667889095
32
0
13
8.8
23
63.8667889095
33
0
0
SOLID
5
72
100
AcDbEntity
8
frame
6
CONTINUOUS
62
7
370
0
100
AcDbTrace
10
88
20
64
30
0
11
87.2
21
63.8667889095
31
0
12
87.2
22
64.1332110905
32
0
13
87.2
23
64.1332110905
33
0
0
MTEXT
5
73
100
AcDbEntity
8
frame
6
CONTINUOUS
62
7
370
0
100
AcDbMText
10
48
20
65.5
30
0
40
2
41
2.44444444444
71
5
72
1
1
80
7
standard
210
0
220
0
230
1
50
0
73
2
44
1
0
LINE
5
74
100
AcDbEntity
8
frame
6
CONTINUOUS
62
7
370
0
100
AcDbLine
10
8
20
67.2
11
8
21
63.99589895
0
LINE
5
75
100
AcDbEntity
8
frame
6
CONTINUOUS
62
7
370
0
100
AcDbLine
10
88
20
67.2
11
88
21
63.99589895
0
ENDBLK
5
51
330
4F
100
AcDbEntity
8
0
100
AcDbBlockEnd
0
BLOCK
5
53
330
52
100
AcDbEntity
8
0
100
AcDbBlockBegin
2
*D5
70
1
10
0
20
0
3
*D5
1

0
LINE
5
76
100
AcDbEntity
8
plywood
6
CONTINUOUS
62
7
370
0
100
AcDbLine
10
8
20
2
11
88
21
2
0
SOLID
5
77
100
AcDbEntity
8
plywood
6
CONTINUOUS
62
7
370
0
100
AcDbTrace
10
8
20
2
30
0
11
8.8
21
2.13321109049
31
0
12
8.8
22
1.86678890951
32
0
13
8.8
23
1.86678890951
33
0
0
SOLID
5
78
100
AcDbEntity
8
plywood
6
CONTINUOUS
62
7
370
0
100
AcDbTrace
10
88
20
2
30
0
11
87.2
21
1.86678890951
31
0
12
87.2
22
2.13321109049
32
0
13
87.2
23
2.13321109049
33
0
0
MTEXT
5
79
100
AcDbEntity
8
plywood
6
CONTINUOUS
62
7
370
0
100
AcDbMText
10
48
20
3.5
30
0
40
2
41
2.44444444444
71
5
72
1
1
80
7
standard
210
0
220
0
230
1
50
0
73
2
44
1
0
LINE
5
7A
100
AcDbEntity
8
plywood
6
CONTINUOUS
62
7
370
0
100
AcDbLine
10
8
20
6.7
11
8
21
1.99589895
0
LINE
5
7B
100
AcDbEntity
8
plywood
6
CONTINUOUS
62
7
370
0
100
AcDbLine
10
88
20
6.7
11
88
21
1.99589895
0
ENDBLK
5
54
330
52
100
AcDbEntity
8
0
100
AcDbBlockEnd
0
BLOCK
5
56
330
55
100
AcDbEntity
8
0
100
AcDbBlockBegin
2
*D4
70
1
10
0
20
0
3
*D4
1

0
LINE
5
7C
100
AcDbEntity
8
plywood
6
CONTINUOUS
62
7
370
0
100
AcDbLine
10
4
20
68.5
11
4
21
7.5
0
SOLID
5
7D
100
AcDbEntity
8
plywood
6
CONTINUOUS
62
7
370
0
100
AcDbTrace
10
4
20
68.5
30
0
11
4.13321109049
21
67.7
31
0
12
3.86678890951
22
67.7
32
0
13
3.86678890951
23
67.7
33
0
0
SOLID
5
7E
100
AcDbEntity
8
plywood
6
CONTINUOUS
62
7
370
0
100
AcDbTrace
10
4
20
7.5
30
0
11
3.86678890951
21
8.3
31
0
12
4.13321109049
22
8.3
32
0
13
4.13321109049
23
8.3
33
0
0
MTEXT
5
7F
100
AcDbEntity
8
plywood
6
CONTINUOUS
62
7
370
0
100
AcDbMText
10
2.5
20
38
30
0
40
2
41
2
71
5
72
1
1
61
7
standard
210
0
220
0
230
1
50
90
73
2
44
1
0
LINE
5
80
100
AcDbEntity
8
plywood
6
CONTINUOUS
62
7
370
0
100
AcDbLine
10
7.2
20
68.5
11
3.99589895
21
68.5
0
LINE
5
81
100
AcDbEntity
8
plywood
6
CONTINUOUS
62
7
370
0
100
AcDbLine
10
7.2
20
7.5
11
3.99589895
21
7.5
0
ENDBLK
5
57
330
55
100
AcDbEntity
8
0
100
AcDbBlockEnd
0
BLOCK
5
59
330
58
100
AcDbEntity
8
0
100
AcDbBlockBegin
2
*D2
70
1
10
0
20
0
3
*D2
1

0
LINE
5
82
100
AcDbEntity
8
frame
6
CONTINUOUS
62
7
370
0
100
AcDbLine
10
6.5
20
72
11
89.5
21
72
0
SOLID
5
83
100
AcDbEntity
8
frame
6
CONTINUOUS
62
7
370
0
100
AcDbTrace
10
6.5
20
72
30
0
11
7.3
21
72.1332110905
31
0
12
7.3
22
71.8667889095
32
0
13
7.3
23
71.8667889095
33
0
0
SOLID
5
84
100
AcDbEntity
8
frame
6
CONTINUOUS
62
7
370
0
100
AcDbTrace
10
89.5
20
72
30
0
11
88.7
21
71.8667889095
31
0
12
88.7
22
72.1332110905
32
0
13
88.7
23
72.1332110905
33
0
0
MTEXT
5
85
100
AcDbEntity
8
frame
6
CONTINUOUS
62
7
370
0
100
AcDbMText
10
48
20
73.5
30
0
40
2
41
2.44444444444
71
5
72
1
1
83
7
standard
210
0
220
0
230
1
50
0
73
2
44
1
0
LINE
5
86
100
AcDbEntity
8
frame
6
CONTINUOUS
62
7
370
0
100
AcDbLine
10
6.5
20
70.3
11
6.5
21
72.00410105
0
LINE
5
87
100
AcDbEntity
8
frame
6
CONTINUOUS
62
7
370
0
100
AcDbLine
10
89.5
20
70.3
11
89.5
21
72.00410105
0
ENDBLK
5
5A
330
58
100
AcDbEntity
8
0
100
AcDbBlockEnd
0
BLOCK
5
5C
330
5B
100
AcDbEntity
8
0
100
AcDbBlockBegin
2
*D7
70
1
10
0
20
0
3
*D7
1

0
LINE
5
88
100
AcDbEntity
8
0
6
CONTINUOUS
62
7
370
0
100
AcDbLine
10
14
20
68
11
14
21
8
0
SOLID
5
89
100
AcDbEntity
8
0
6
CONTINUOUS
62
7
370
0
100
AcDbTrace
10
14
20
68
30
0
11
14.1332110905
21
67.2
31
0
12
13.8667889095
22
67.2
32
0
13
13.8667889095
23
67.2
33
0
0
SOLID
5
8A
100
AcDbEntity
8
0
6
CONTINUOUS
62
7
370
0
100
AcDbTrace
10
14
20
8
30
0
11
13.8667889095
21
8.8
31
0
12
14.1332110905
22
8.8
32
0
13
14.1332110905
23
8.8
33
0
0
MTEXT
5
8B
100
AcDbEntity
8
0
6
CONTINUOUS
62
7
370
0
100
AcDbMText
10
12.5
20
38
30
0
40
2
41
2.44444444444
71
5
72
1
1
60
7
standard
210
0
220
0
230
1
50
90
73
2
44
1
0
LINE
5
8C
100
AcDbEntity
8
0
6
CONTINUOUS
62
7
370
0
100
AcDbLine
10
8.8
20
68
11
14.00410105
21
68
0
LINE
5
8D
100
AcDbEntity
8
0
6
CONTINUOUS
62
7
370
0
100
AcDbLine
10
8.8
20
8
11
14.00410105
21
8
0
ENDBLK
5
5D
330
5B
100
AcDbEntity
8
0
100
AcDbBlockEnd
0
BLOCK
5
5F
330
5E
100
AcDbEntity
8
0
100
AcDbBlockBegin
2
*D8
70
1
10
0
20
0
3
*D8
1

0
LINE
5
8E
100
AcDbEntity
8
plywood
6
CONTINUOUS
62
7
370
0
100
AcDbLine
10
8
20
32
11
55.875
21
32
0
SOLID
5
8F
100
AcDbEntity
8
plywood
6
CONTINUOUS
62
7
370
0
100
AcDbTrace
10
8
20
32
30
0
11
8.8
21
32.1332110905
31
0
12
8.8
22
31.8667889095
32
0
13
8.8
23
31.8667889095
33
0
0
SOLID
5
90
100
AcDbEntity
8
plywood
6
CONTINUOUS
62
7
370
0
100
AcDbTrace
10
55.875
20
32
30
0
11
55.075
21
31.8667889095
31
0
12
55.075
22
32.1332110905
32
0
13
55.075
23
32.1332110905
33
0
0
MTEXT
5
91
100
AcDbEntity
8
plywood
6
CONTINUOUS
62
7
370
0
100
AcDbMText
10
31.9375
20
33.5
30
0
40
2
41
8.83333333333
71
5
72
1
1
47 7/8
7
standard
210
0
220
0
230
1
50
0
73
2
44
1
0
LINE
5
92
100
AcDbEntity
8
plywood
6
CONTINUOUS
62
7
370
0
100
AcDbLine
10
8
20
8.3
11
8
21
32.00410105
0
LINE
5
93
100
AcDbEntity
8
plywood
6
CONTINUOUS
62
7
370
0
100
AcDbLine
10
55.875
20
8.3
11
55.875
21
32.00410105
0
ENDBLK
5
60
330
5E
100
AcDbEntity
8
0
100
AcDbBlockEnd
0
BLOCK
5
62
330
61
100
AcDbEntity
8
0
100
AcDbBlockBegin
2
*D9
70
1
10
0
20
0
3
*D9
1

0
LINE
5
94
100
AcDbEntity
8
plywood
6
CONTINUOUS
62
7
370
0
100
AcDbLine
10
55.875
20
32
11
88
21
32
0
SOLID
5
95
100
AcDbEntity
8
plywood
6
CONTINUOUS
62
7
370
0
100
AcDbTrace
10
55.875
20
32
30
0
11
56.675
21
32.1332110905
31
0
12
56.675
22
31.8667889095
32
0
13
56.675
23
31.8667889095
33
0
0
SOLID
5
96
100
AcDbEntity
8
plywood
6
CONTINUOUS
62
7
370
0
100
AcDbTrace
10
88
20
32
30
0
11
87.2
21
31.8667889095
31
0
12
87.2
22
32.1332110905
32
0
13
87.2
23
32.1332110905
33
0
0
MTEXT
5
97
100
AcDbEntity
8
plywood
6
CONTINUOUS
62
7
370
0
100
AcDbMText
10
71.9375
20
33.5
30
0
40
2
41
8.16666666667
71
5
72
1
1
32 1/8
7
standard
210
0
220
0
230
1
50
0
73
2
44
1
0
LINE
5
98
100
AcDbEntity
8
plywood
6
CONTINUOUS
62
7
370
0
100
AcDbLine
10
55.875
20
8.3
11
55.875
21
32.00410105
0
LINE
5
99
100
AcDbEntity
8
plywood
6
CONTINUOUS
62
7
370
0
100
AcDbLine
10
88
20
8.3
11
88
21
32.00410105
0
ENDBLK
5
63
330
61
100
AcDbEntity
8
0
100
AcDbBlockEnd
0
ENDSEC
0
SECTION
2
ENTITIES
0
LINE
5
9A
100
AcDbEntity
8
frame
6
ByLayer
62
256
370
-1
100
AcDbLine
10
89.5
20
8
11
89.5
21
68
0
LINE
5
9B
100
AcDbEntity
8
frame
6
ByLayer
62
256
370
-1
100
AcDbLine
10
6.5
20
8
11
6.5
21
68
0
LINE
5
9C
100
AcDbEntity
8
frame
6
ByLayer
62
256
370
-1
100
AcDbLine
10
89.5
20
8
11
89.5
21
6.5
0
LINE
5
9D
100
AcDbEntity
8
frame
6
ByLayer
62
256
370
-1
100
AcDbLine
10
89.5
20
6.5
11
6.5
21
6.5
0
LINE
5
9E
100
AcDbEntity
8
frame
6
ByLayer
62
256
370
-1
100
AcDbLine
10
6.5
20
6.5
11
6.5
21
8
0
LINE
5
9F
100
AcDbEntity
8
frame
6
ByLayer
62
256
370
-1
100
AcDbLine
10
89.5
20
68
11
89.5
21
69.5
0
LINE
5
A0
100
AcDbEntity
8
frame
6
ByLayer
62
256
370
-1
100
AcDbLine
10
89.5
20
69.5
11
6.5
21
69.5
0
LINE
5
A1
100
AcDbEntity
8
frame
6
ByLayer
62
256
370
-1
100
AcDbLine
10
6.5
20
69.5
11
6.5
21
68
0
LINE
5
A2
100
AcDbEntity
8
frame
6
ByLayer
62
256
370
-1
100
AcDbLine
10
88
20
69.5
11
88
21
6.5
0
LINE
5
A3
100
AcDbEntity
8
frame
6
ByLayer
62
256
370
-1
100
AcDbLine
10
8
20
69.5
11
8
21
6.5
0
LINE
5
A4
100
AcDbEntity
8
frame
6
ByLayer
62
256
370
-1
100
AcDbLine
10
8
20
8
11
88
21
8
0
LINE
5
A5
100
AcDbEntity
8
frame
6
ByLayer
62
256
370
-1
100
AcDbLine
10
8
20
68
11
88
21
68
0
LINE
5
A6
100
AcDbEntity
8
rabbet
6
ByLayer
62
256
370
-1
100
AcDbLine
10
88
20
68.5
11
8
21
68.5
0
LINE
5
A7
100
AcDbEntity
8
rabbet
6
ByLayer
62
256
370
-1
100
AcDbLine
10
88
20
7.5
11
8
21
7.5
0
LINE
5
A8
100
AcDbEntity
8
plywood
6
ByLayer
62
256
370
-1
100
AcDbLine
10
8
20
68.5
11
88
21
68.5
0
LINE
5
A9
100
AcDbEntity
8
plywood
6
ByLayer
62
256
370
-1
100
AcDbLine
10
88
20
68.5
11
88
21
7.5
0
LINE
5
AA
100
AcDbEntity
8
plywood
6
ByLayer
62
256
370
-1
100
AcDbLine
10
88
20
7.5
11
8
21
7.5
0
LINE
5
AB
100
AcDbEntity
8
plywood
6
ByLayer
62
256
370
-1
100
AcDbLine
10
8
20
7.5
11
8
21
68.5
0
DIMENSION
5
AC
100
AcDbEntity
8
frame
6
ByLayer
62
256
370
-1
100
AcDbDimension
2
*D1
10
88
20
64
30
0
11
48
21
65.5
31
0
70
32
71
5
3
Standard
53
0
210
0
220
0
230
1
100
AcDbAlignedDimension
13
8
23
68
33
0
14
88
24
68
34
0
100
AcDbRotatedDimension
0
DIMENSION
5
AD
100
AcDbEntity
8
frame
6
ByLayer
62
256
370
-1
100
AcDbDimension
2
*D2
10
89.5
20
72
30
0
11
48
21
73.5
31
0
70
32
71
5
3
Standard
53
0
210
0
220
0
230
1
100
AcDbAlignedDimension
13
6.5
23
69.5
33
0
14
89.5
24
69.5
34
0
100
AcDbRotatedDimension
0
DIMENSION
5
AE
100
AcDbEntity
8
frame
6
ByLayer
62
256
370
-1
100
AcDbDimension
2
*D3
10
94
20
6.5
30
0
11
92.5
21
38
31
0
70
32
71
5
3
Standard
53
0
210
0
220
0
230
1
100
AcDbAlignedDimension
13
89.5
23
69.5
33
0
14
89.5
24
6.5
34
0
50
90
100
AcDbRotatedDimension
0
DIMENSION
5
AF
100
AcDbEntity
8
plywood
6
CONTINUOUS
62
256
370
-1
100
AcDbDimension
2
*D4
10
4
20
7.5
30
0
11
2.5
21
38
31
0
70
32
71
5
3
Standard
53
0
210
0
220
0
230
1
100
AcDbAlignedDimension
13
8
23
68.5
33
0
14
8
24
7.5
34
0
50
90
100
AcDbRotatedDimension
0
DIMENSION
5
B0
100
AcDbEntity
8
plywood
6
CONTINUOUS
62
256
370
-1
100
AcDbDimension
2
*D5
10
88
20
2
30
0
11
48
21
3.5
31
0
70
32
71
5
3
Standard
53
0
210
0
220
0
230
1
100
AcDbAlignedDimension
13
8
23
7.5
33
0
14
88
24
7.5
34
0
100
AcDbRotatedDimension
0
DIMENSION
5
B1
100
AcDbEntity
8
rabbet
6
CONTINUOUS
62
256
370
-1
100
AcDbDimension
2
*D6
10
33.3139948396
20
7.5
30
0
11
31.8139948396
21
7.75
31
0
70
32
71
5
3
Standard
53
0
210
0
220
0
230
1
100
AcDbAlignedDimension
13
33.3139948396
23
8
33
0
14
33.3139948396
24
7.5
34
0
50
90
100
AcDbRotatedDimension
0
LINE
5
B2
100
AcDbEntity
8
0
6
ByLayer
62
256
370
-1
100
AcDbLine
10
56
20
-27.5
11
8
21
-27.5
0
DIMENSION
5
B3
100
AcDbEntity
8
0
6
ByLayer
62
256
370
-1
100
AcDbDimension
2
*D7
10
14
20
8
30
0
11
12.5
21
38
31
0
70
32
71
5
72
0
3
Standard
53
0
210
0
220
0
230
1
100
AcDbAlignedDimension
13
8
23
68
33
0
14
8
24
8
34
0
50
90
100
AcDbRotatedDimension
0
LINE
5
B4
100
AcDbEntity
8
plywood
6
ByLayer
62
256
370
-1
100
AcDbLine
10
55.875
20
7.5
11
55.875
21
68.5
0
DIMENSION
5
B5
100
AcDbEntity
8
plywood
6
ByLayer
62
256
370
-1
100
AcDbDimension
2
*D8
10
55.875
20
32
30
0
11
31.9375
21
33.5
31
0
70
32
71
5
3
Standard
53
0
210
0
220
0
230
1
100
AcDbAlignedDimension
13
8
23
7.5
33
0
14
55.875
24
7.5
34
0
100
AcDbRotatedDimension
0
DIMENSION
5
B6
100
AcDbEntity
8
plywood
6
ByLayer
62
256
370
-1
100
AcDbDimension
2
*D9
10
88
20
32
30
0
11
71.9375
21
33.5
31
0
70
32
71
5
3
Standard
53
0
210
0
220
0
230
1
100
AcDbAlignedDimension
13
55.875
23
7.5
33
0
14
88
24
7.5
34
0
100
AcDbRotatedDimension
0
ENDSEC
0
SECTION
2
OBJECTS
0
DICTIONARY
5
C
330
0
100
AcDbDictionary
281
1
3
ACAD_GROUP
350
D
0
DICTIONARY
5
D
330
C
100
AcDbDictionary
281
1
0
ENDSEC
0
EOF
